<mxfile host="app.diagrams.net" modified="2023-11-03T12:38:06.711Z" agent="Mozilla/5.0 (Macintosh; Intel Mac OS X 10_15_7) AppleWebKit/537.36 (KHTML, like Gecko) Chrome/118.0.0.0 Safari/537.36" version="22.0.8" etag="C-PQJ9dgUI-Af6Mgn1RR" type="github">
  <diagram name="Page-1" id="4jnl4u83B_zrQDHS86hQ">
    <mxGraphModel>
      <root>
        <mxCell id="0" />
        <mxCell id="1" parent="0" />
      </root>
    </mxGraphModel>
  </diagram>
</mxfile>
